<?xml version="1.0" standalone="no"?>
<!DOCTYPE svg PUBLIC "-//W3C//DTD SVG 20010904//EN"
 "http://www.w3.org/TR/2001/REC-SVG-20010904/DTD/svg10.dtd">
<svg version="1.0" xmlns="http://www.w3.org/2000/svg"
 width="808.000000pt" height="808.000000pt" viewBox="0 0 808.000000 808.000000"
 preserveAspectRatio="xMidYMid meet">
<metadata>
Created by potrace 1.14, written by Peter Selinger 2001-2017
</metadata>
<g transform="translate(0.000000,808.000000) scale(0.100000,-0.100000)"
fill="#000000" stroke="none">
<path d="M3830 8069 c-836 -43 -1636 -344 -2293 -863 -34 -26 -61 -53 -59 -60
2 -6 0 -8 -4 -4 -15 16 -297 -250 -465 -440 -192 -216 -478 -624 -463 -662 3
-8 2 -11 -2 -7 -11 10 -27 -17 -115 -193 -205 -411 -340 -856 -393 -1300 -7
-63 -14 -122 -14 -130 0 -8 -6 -96 -12 -195 -39 -657 121 -1394 438 -2010 92
-178 224 -395 235 -388 6 3 7 1 4 -4 -8 -13 150 -229 164 -225 6 1 8 -2 4 -8
-8 -14 156 -211 169 -203 6 3 8 3 4 -2 -11 -11 12 -36 25 -28 5 3 7 1 4 -4
-10 -15 209 -237 224 -228 7 5 10 4 5 -3 -7 -12 71 -89 85 -84 5 1 8 -2 7 -6
-7 -23 394 -328 414 -316 6 4 8 3 5 -3 -17 -27 535 -336 565 -317 6 4 8 3 5
-3 -4 -6 -1 -13 6 -16 294 -124 455 -179 722 -246 498 -124 1109 -143 1640
-50 66 12 125 25 131 30 6 5 13 6 17 3 13 -13 412 100 575 164 40 15 69 32 65
37 -4 4 -2 5 4 1 24 -13 366 148 545 256 201 122 258 160 253 167 -2 5 3 8 13
7 9 0 16 5 14 12 -1 8 2 11 7 8 12 -8 169 110 311 233 129 112 200 183 193
194 -3 6 -2 7 4 4 27 -17 445 469 435 505 -1 5 1 7 5 5 8 -5 68 79 145 203
116 185 262 464 254 486 -3 8 -2 13 3 10 13 -9 88 176 162 399 265 801 263
1708 -6 2509 -65 194 -79 229 -90 219 -4 -5 -5 -2 -1 5 10 17 0 42 -107 264
-50 105 -94 185 -100 181 -6 -3 -7 -1 -3 5 4 6 -5 29 -19 51 -14 23 -25 43
-25 45 0 17 -134 215 -143 209 -6 -3 -7 -1 -3 5 6 11 -132 209 -177 254 -9 9
-17 20 -17 25 0 4 -19 28 -41 53 -23 25 -48 55 -56 67 -8 13 -20 20 -26 16 -5
-3 -7 -1 -4 4 9 14 -332 355 -345 347 -6 -4 -8 -3 -5 3 10 16 -260 228 -453
355 -203 134 -434 259 -620 334 -47 19 -94 39 -105 44 -202 95 -673 216 -995
255 -120 14 -453 36 -515 33 -16 0 -100 -5 -185 -9z m605 -258 c245 -29 547
-92 750 -157 249 -80 553 -216 775 -346 148 -88 413 -276 514 -365 26 -24 53
-40 60 -36 6 3 8 2 3 -2 -10 -11 23 -46 36 -38 5 3 7 1 4 -4 -9 -14 29 -47 43
-38 6 3 9 2 8 -3 -3 -11 199 -221 207 -215 3 1 3 0 0 -4 -7 -9 66 -84 75 -78
4 3 7 -3 6 -13 0 -10 5 -16 14 -14 8 2 12 0 8 -4 -11 -10 72 -105 84 -97 7 4
8 1 4 -6 -5 -7 -1 -20 7 -29 39 -43 218 -309 277 -412 23 -41 50 -83 59 -94 9
-10 14 -19 13 -20 -2 0 28 -68 68 -151 92 -194 91 -192 144 -335 108 -295 176
-597 212 -933 20 -193 14 -681 -10 -852 -47 -326 -112 -588 -211 -850 -12 -33
-24 -64 -25 -70 -2 -5 -16 -39 -32 -74 -16 -36 -26 -71 -23 -78 2 -8 1 -12 -3
-9 -9 5 -42 -55 -42 -76 0 -6 -6 -19 -14 -27 -7 -9 -35 -59 -62 -111 -104
-203 -283 -469 -452 -670 -44 -52 -149 -164 -233 -249 -85 -85 -153 -158 -151
-163 1 -5 -2 -7 -7 -3 -6 3 -50 -27 -98 -68 -49 -40 -129 -103 -180 -139 -51
-36 -89 -69 -85 -73 4 -4 2 -5 -3 -3 -16 5 -135 -74 -128 -85 3 -6 1 -7 -6 -3
-7 5 -38 -9 -74 -31 -34 -21 -83 -49 -109 -63 -26 -13 -44 -28 -41 -34 3 -5 1
-6 -5 -2 -6 3 -55 -16 -109 -43 -305 -155 -757 -296 -1108 -345 -277 -39 -637
-50 -895 -26 -367 33 -781 134 -1104 269 -54 22 -103 38 -110 34 -6 -3 -8 -3
-5 1 4 4 -52 37 -125 74 -153 77 -343 189 -472 278 -51 34 -95 61 -98 58 -3
-2 -4 -1 -1 2 2 4 -15 20 -38 37 -23 16 -67 52 -98 78 -31 27 -60 45 -64 41
-5 -4 -5 -2 -2 4 7 12 -20 29 -38 25 -5 -2 -7 1 -2 5 9 10 -23 45 -35 38 -4
-3 -8 -2 -7 3 1 4 -70 80 -157 169 -87 88 -177 184 -199 212 -22 28 -46 49
-53 47 -7 -3 -10 0 -7 6 9 13 -14 41 -28 32 -5 -3 -7 -1 -4 5 4 5 -23 50 -59
99 -65 87 -85 111 -69 84 5 -10 4 -12 -4 -7 -6 4 -9 11 -6 16 3 5 -21 49 -53
97 -69 103 -193 320 -232 407 -15 34 -39 86 -53 116 -145 314 -257 724 -304
1110 -27 221 -24 679 5 900 68 520 216 962 470 1410 36 63 65 120 65 127 0 7
3 10 7 8 3 -2 15 10 25 28 10 18 47 72 82 120 35 48 60 93 57 99 -4 7 -2 8 4
4 7 -4 12 -3 12 1 0 5 10 19 23 33 12 14 38 45 57 70 117 153 402 440 577 580
67 54 120 100 117 103 -3 3 0 8 7 13 8 4 10 3 5 -4 -13 -22 3 -12 91 52 49 34
102 71 120 81 18 10 29 23 26 28 -3 6 -1 7 4 4 6 -4 48 16 94 44 92 55 419
219 438 219 7 0 9 5 5 12 -4 6 -3 8 3 5 6 -4 64 13 130 38 65 25 125 45 133
45 13 0 13 2 0 11 -13 9 -13 10 2 6 9 -3 45 3 80 14 261 80 573 138 883 163
89 7 548 -2 640 -13z"/>
<path d="M4189 7507 c-2 -6 -38 -471 -36 -473 1 -1 22 -4 47 -5 l45 -4 18 234
c9 129 16 235 15 236 -4 3 -88 14 -89 12z"/>
<path d="M3702 7480 c-60 -37 -74 -117 -52 -288 16 -125 54 -172 140 -172 76
0 119 39 135 120 8 46 -12 244 -30 286 -18 43 -68 74 -120 74 -23 0 -54 -9
-73 -20z m106 -93 c19 -40 29 -252 12 -272 -18 -21 -47 -19 -60 5 -14 26 -32
225 -23 259 12 49 49 53 71 8z"/>
<path d="M4546 7443 c-22 -107 -76 -436 -72 -440 2 -3 22 -7 44 -10 46 -6 44
-10 62 107 7 41 16 81 20 88 4 8 17 -31 30 -92 13 -58 27 -111 30 -117 4 -6
23 -14 43 -18 42 -10 33 -37 82 243 20 115 33 212 28 216 -4 4 -24 10 -44 14
-42 7 -40 12 -60 -121 -7 -46 -15 -83 -19 -83 -4 0 -17 47 -30 104 -12 57 -25
108 -29 114 -3 5 -22 12 -43 16 -34 6 -37 5 -42 -21z"/>
<path d="M3194 7404 c-50 -24 -68 -68 -62 -150 8 -104 45 -230 80 -270 35 -39
83 -52 137 -35 55 16 83 51 89 111 l5 51 -29 -6 c-16 -4 -36 -9 -45 -11 -9 -3
-19 -17 -22 -33 -8 -37 -35 -48 -59 -24 -22 23 -70 205 -66 252 2 20 11 39 21
45 15 9 22 6 42 -16 21 -25 26 -26 62 -16 21 5 39 11 41 13 8 7 -30 65 -54 84
-32 25 -95 28 -140 5z"/>
<path d="M5105 7327 c-51 -141 -145 -422 -145 -431 0 -11 78 -42 85 -34 1 2
13 37 27 78 21 61 29 74 44 72 106 -17 112 -16 148 20 40 40 69 125 60 175 -4
19 -19 44 -35 57 -37 31 -178 80 -184 63z m113 -120 c30 -24 -2 -117 -41 -117
-39 0 -48 12 -37 51 25 87 37 98 78 66z"/>
<path d="M2668 7229 c-43 -17 -78 -35 -78 -40 0 -6 34 -96 76 -202 42 -106 80
-202 85 -214 l8 -23 83 35 c103 44 131 70 131 122 0 49 -39 132 -69 145 -21
10 -23 16 -18 49 13 78 -43 159 -109 159 -18 -1 -67 -14 -109 -31z m116 -81
c22 -31 20 -65 -3 -78 -31 -16 -41 -12 -57 25 -19 45 -18 63 4 68 33 9 41 7
56 -15z m59 -160 c9 -7 21 -28 26 -46 8 -27 7 -36 -10 -53 -36 -36 -43 -29
-86 78 -3 7 6 17 18 22 32 13 33 13 52 -1z"/>
<path d="M5621 7053 c-23 -27 -99 -105 -168 -174 l-126 -127 41 -27 41 -27 25
28 25 29 48 -27 c26 -14 47 -32 45 -39 -15 -62 -15 -64 26 -87 38 -21 41 -21
46 -5 90 309 127 457 114 465 -18 12 -66 38 -71 38 -2 0 -22 -21 -46 -47z m9
-130 c-5 -16 -16 -52 -25 -80 -8 -29 -18 -53 -21 -53 -3 0 -18 7 -35 15 l-30
16 57 64 c32 36 59 65 60 65 1 0 -1 -12 -6 -27z"/>
<path d="M2222 6996 c-46 -30 -84 -57 -84 -61 -1 -4 55 -94 123 -201 77 -120
129 -192 137 -189 23 8 172 107 172 113 0 4 -11 20 -24 36 l-23 30 -29 -21
c-67 -47 -69 -47 -103 4 l-30 48 45 27 c47 30 47 34 11 82 -13 18 -15 18 -53
-8 -21 -14 -42 -26 -45 -26 -6 0 -59 75 -59 84 0 3 23 19 50 37 28 18 50 34
50 37 0 8 -42 62 -48 62 -4 0 -44 -25 -90 -54z"/>
<path d="M5971 6738 c-43 -117 -62 -156 -107 -213 l-54 -70 30 -27 c17 -16 34
-28 39 -28 5 0 32 30 61 68 42 55 74 82 180 152 71 47 130 87 130 90 0 3 -18
18 -40 33 l-40 28 -67 -52 c-36 -29 -64 -49 -62 -43 2 6 17 41 34 78 l29 69
-34 28 c-19 16 -37 29 -41 29 -3 0 -29 -64 -58 -142z"/>
<path d="M1876 6757 l-38 -32 91 -138 c50 -75 89 -137 87 -137 -2 0 -60 45
-127 100 -68 55 -126 100 -130 100 -3 0 -22 -15 -42 -32 l-37 -33 71 -115
c114 -185 114 -185 -23 -63 l-124 111 -40 -34 c-34 -30 -37 -35 -23 -46 8 -7
95 -73 192 -147 l177 -134 35 27 c19 15 35 31 35 35 0 5 -36 70 -80 146 -44
76 -80 139 -80 142 0 2 56 -42 125 -97 134 -108 142 -111 185 -65 l22 24 -117
210 c-64 116 -117 211 -118 211 -1 0 -19 -15 -41 -33z"/>
<path d="M3459 6685 c-137 -30 -350 -96 -343 -107 3 -4 -1 -5 -9 -2 -14 5
-107 -32 -254 -101 -57 -27 -79 -42 -70 -48 8 -6 6 -7 -6 -3 -10 3 -37 -7 -65
-24 -26 -16 -60 -36 -77 -45 -54 -28 -169 -110 -173 -122 -5 -19 16 -16 47 6
87 62 328 173 481 221 32 10 54 22 52 29 -1 7 2 10 7 7 5 -3 51 14 104 38 122
57 217 91 346 125 58 15 107 33 109 39 5 17 -26 14 -149 -13z"/>
<path d="M4470 6697 c0 -10 20 -18 61 -26 92 -19 280 -86 419 -151 69 -32 136
-61 150 -65 97 -26 323 -129 441 -201 39 -23 64 -33 70 -27 32 32 -601 373
-643 347 -6 -4 -8 -3 -5 3 10 16 -300 103 -450 128 -34 5 -43 4 -43 -8z"/>
<path d="M3874 6600 c-132 -11 -176 -20 -171 -33 3 -9 94 -13 327 -15 300 -2
359 2 338 23 -21 21 -352 38 -494 25z"/>
<path d="M6348 6429 c-52 -68 -118 -155 -146 -192 l-52 -69 27 -33 c16 -19 33
-34 38 -34 6 -1 59 29 119 65 141 84 175 102 160 83 -6 -8 -48 -61 -94 -119
-46 -58 -88 -110 -93 -117 -8 -12 36 -83 53 -83 7 0 277 148 373 204 26 15 47
31 47 35 0 4 -15 21 -33 39 l-33 32 -109 -73 c-186 -124 -176 -120 -125 -55
25 31 73 90 108 132 l63 75 -36 40 -36 39 -107 -65 c-59 -36 -123 -75 -142
-86 l-35 -22 20 27 c11 14 60 72 109 128 l89 101 -35 36 -35 35 -95 -123z"/>
<path d="M3445 6424 c-76 -7 -190 -25 -280 -46 -78 -18 -105 -30 -200 -93
-163 -106 -353 -274 -338 -298 3 -6 1 -7 -5 -3 -16 10 -70 -40 -56 -54 7 -7
22 -2 52 20 96 70 327 181 445 215 32 9 113 43 180 76 136 65 324 130 435 150
112 19 86 34 -64 35 -71 0 -147 -1 -169 -2z"/>
<path d="M4330 6417 c0 -10 8 -17 19 -17 10 0 71 -14 136 -30 126 -33 262 -84
363 -137 35 -18 69 -30 75 -26 7 3 9 2 4 -2 -4 -5 48 -28 115 -52 136 -47 269
-110 366 -172 34 -23 67 -41 72 -41 6 0 10 -4 10 -10 0 -5 5 -10 10 -10 25 0
4 31 -68 103 -43 43 -82 74 -87 70 -4 -4 -5 -3 -2 3 6 10 -122 123 -131 116
-3 -2 -8 0 -11 5 -11 15 -86 69 -147 106 -100 60 -280 95 -541 104 -166 6
-183 5 -183 -10z"/>
<path d="M3803 6288 c-51 -7 -73 -14 -73 -24 0 -12 50 -14 305 -14 264 0 305
2 305 15 0 9 -10 16 -25 17 -14 1 -37 3 -52 6 -61 9 -392 9 -460 0z"/>
<path d="M1336 6215 c-30 -39 -31 -37 31 -113 24 -29 43 -55 43 -58 0 -2 -26
9 -57 25 -93 46 -95 46 -131 2 l-31 -39 146 -53 c118 -43 158 -62 214 -106 38
-29 72 -53 75 -53 9 0 53 54 53 65 0 6 -30 32 -66 60 -53 40 -82 73 -151 177
-47 70 -88 128 -92 128 -4 0 -20 -16 -34 -35z"/>
<path d="M3445 6119 c-44 -5 -118 -16 -165 -25 -74 -15 -96 -24 -170 -75 -144
-100 -368 -305 -351 -322 10 -10 134 61 127 72 -3 4 3 7 12 8 9 0 59 19 110
42 50 22 127 51 170 63 42 13 97 34 122 48 25 14 73 38 107 54 34 16 59 34 56
39 -3 6 -1 7 6 3 6 -4 51 6 99 22 48 16 113 35 145 42 37 7 57 16 57 26 0 11
-22 14 -122 13 -68 -1 -159 -5 -203 -10z"/>
<path d="M4300 6119 c0 -10 30 -22 93 -37 116 -29 227 -72 342 -132 50 -27
119 -56 155 -66 85 -23 187 -65 278 -114 41 -22 79 -37 84 -34 7 4 8 2 4 -4
-9 -15 42 -48 55 -35 12 12 -197 218 -281 276 -99 69 -159 105 -185 111 -90
22 -219 37 -372 43 -146 5 -173 4 -173 -8z"/>
<path d="M2427 6034 c-26 -19 -45 -39 -42 -44 3 -5 0 -8 -7 -5 -16 6 -152
-121 -143 -135 3 -5 0 -7 -8 -4 -8 3 -43 -29 -90 -84 -97 -110 -130 -159 -116
-167 12 -8 191 164 183 177 -3 5 0 7 8 6 7 -2 12 3 10 10 -1 8 1 11 6 8 12 -7
64 48 55 59 -5 4 -3 5 3 2 14 -8 107 86 97 98 -5 4 -3 5 3 2 6 -3 33 16 59 43
62 63 51 84 -18 34z"/>
<path d="M5585 6061 c-4 -8 229 -248 313 -321 9 -9 30 -32 46 -53 38 -48 75
-72 88 -59 11 11 1 26 -100 139 -30 34 -60 60 -66 56 -6 -3 -8 -2 -3 2 9 11
-23 46 -35 39 -4 -3 -7 -1 -6 4 4 13 -70 84 -147 143 -77 58 -82 61 -90 50z"/>
<path d="M3833 5988 c-52 -7 -73 -14 -73 -24 0 -12 46 -14 281 -14 220 0 280
3 277 13 -11 31 -318 47 -485 25z"/>
<path d="M6730 5820 c-102 -66 -189 -121 -194 -123 -6 -2 86 -158 110 -186 8
-9 73 42 67 52 -3 7 -19 31 -35 54 l-28 41 50 31 49 30 23 -36 c13 -20 26 -41
29 -46 4 -5 22 1 42 15 32 22 34 25 20 43 -8 11 -21 32 -29 47 -13 26 -13 27
32 53 25 15 47 25 48 23 2 -1 17 -24 35 -51 34 -49 37 -50 84 -15 17 13 14 19
-39 101 -31 48 -61 87 -68 86 -6 0 -94 -54 -196 -119z"/>
<path d="M2639 5815 c-19 -14 -45 -37 -58 -53 -13 -15 -20 -20 -15 -12 9 18
-30 -14 -113 -94 -34 -33 -59 -64 -56 -69 3 -6 1 -7 -5 -3 -11 7 -52 -44 -52
-65 0 -7 -3 -9 -6 -6 -4 4 -27 -19 -51 -50 -30 -39 -41 -59 -33 -67 7 -7 72
51 215 194 112 112 202 206 200 209 -3 2 3 9 12 16 9 7 12 14 6 18 -6 4 -25
-5 -44 -18z"/>
<path d="M5395 5830 c-5 -9 104 -138 112 -133 3 3 174 -173 184 -188 5 -8 9
-9 9 -4 0 6 9 -3 19 -18 10 -16 20 -27 23 -25 2 2 19 -14 38 -35 44 -50 64
-34 24 20 -16 21 -36 46 -46 56 -10 10 -18 21 -18 25 0 12 -208 217 -220 217
-6 0 -14 5 -18 10 -19 27 -101 84 -107 75z"/>
<path d="M3585 5819 c-99 -3 -202 -11 -228 -18 -57 -14 -99 -39 -90 -54 3 -6
1 -7 -6 -3 -15 10 -78 -41 -211 -171 -118 -116 -126 -146 -21 -82 73 44 220
103 301 121 30 6 62 17 70 24 8 6 30 19 48 28 18 9 30 21 27 25 -2 5 1 9 8 8
34 -1 48 4 41 15 -4 7 -3 8 4 4 6 -4 28 2 49 13 21 10 58 24 82 31 24 6 55 16
70 22 26 11 35 14 59 16 18 3 15 19 -5 23 -10 2 -99 1 -198 -2z"/>
<path d="M4275 5819 c-10 -14 15 -31 38 -25 9 2 17 1 17 -4 0 -4 14 -10 31
-14 56 -11 212 -78 276 -118 33 -21 65 -38 70 -37 37 10 365 -125 386 -158 12
-19 27 -16 26 5 -1 22 -236 242 -313 292 -49 32 -73 40 -140 49 -103 14 -356
19 -356 7 0 -5 -6 -3 -14 3 -11 9 -16 9 -21 0z"/>
<path d="M999 5713 l-23 -37 174 -168 c96 -92 176 -168 180 -168 3 0 15 17 27
38 l22 39 -27 26 -27 27 25 46 c26 47 28 47 89 32 6 -2 23 15 36 38 l25 40
-228 62 c-125 34 -232 62 -239 62 -6 0 -22 -17 -34 -37z m235 -103 c57 -19 62
-26 38 -58 l-18 -23 -59 56 c-64 60 -63 60 39 25z"/>
<path d="M3880 5688 c-36 -5 -72 -15 -80 -23 -12 -13 -12 -15 5 -15 11 0 121
-1 245 -1 145 -1 225 2 228 9 11 33 -244 52 -398 30z"/>
<path d="M6031 5616 c-9 -11 -8 -15 5 -20 22 -8 24 -8 24 8 0 21 -16 28 -29
12z"/>
<path d="M1826 5601 c-10 -11 -15 -25 -10 -32 4 -7 3 -10 -4 -5 -16 9 -164
-237 -156 -260 4 -14 3 -15 -3 -6 -7 9 -26 -23 -66 -110 -77 -171 -88 -200
-82 -215 2 -8 1 -12 -4 -9 -14 9 -106 -307 -95 -326 3 -4 1 -8 -4 -8 -11 0
-37 -149 -28 -158 11 -11 22 13 41 88 27 112 80 261 130 367 25 52 42 99 39
104 -3 5 0 8 6 7 6 -2 21 29 34 67 32 98 72 197 118 288 21 43 36 83 32 90 -4
7 -3 9 1 4 8 -7 85 104 85 123 0 16 -16 11 -34 -9z"/>
<path d="M6220 5610 c0 -25 32 -71 45 -66 8 3 17 1 20 -5 4 -5 2 -8 -3 -7 -19
6 -12 -14 52 -145 35 -72 81 -179 101 -237 20 -58 51 -135 70 -172 65 -129
129 -307 164 -454 8 -31 18 -51 26 -51 9 0 13 8 10 21 -2 12 -11 58 -20 103
-45 231 -167 558 -287 768 -112 196 -178 286 -178 245z"/>
<path d="M2829 5575 c-19 -13 -45 -32 -59 -42 -48 -33 -119 -107 -113 -116 3
-6 2 -7 -4 -4 -19 12 -173 -173 -173 -207 0 -18 27 3 107 80 48 48 87 91 86
95 -2 5 1 8 5 7 10 -4 88 74 85 84 -2 5 0 7 5 6 9 -4 112 101 112 113 0 15
-15 10 -51 -16z"/>
<path d="M5197 5593 c-10 -9 164 -183 176 -176 6 3 7 1 4 -4 -8 -13 27 -46 38
-36 4 5 5 3 2 -3 -8 -13 77 -96 88 -86 5 4 5 2 2 -4 -8 -15 72 -89 83 -78 6 6
0 20 -16 37 -13 15 -22 27 -18 27 23 0 -191 216 -282 284 -66 49 -67 50 -77
39z"/>
<path d="M2111 5494 c-11 -15 -18 -31 -14 -37 3 -5 2 -7 -4 -4 -14 9 -59 -33
-148 -136 -41 -49 -72 -93 -69 -99 4 -6 3 -8 -3 -5 -10 6 -109 -136 -145 -208
-20 -40 -56 -222 -69 -348 -13 -131 -8 -319 8 -324 6 -3 12 4 12 14 -1 75 78
317 158 483 30 63 70 161 89 218 38 118 110 266 183 379 27 42 47 81 45 85 -9
14 -22 9 -43 -18z"/>
<path d="M3465 5513 c-16 -3 -43 -14 -60 -26 -52 -36 -194 -180 -188 -190 3
-6 2 -7 -4 -4 -13 8 -77 -58 -69 -71 3 -5 37 7 78 28 64 34 206 80 245 80 8 0
58 26 112 58 54 32 132 69 174 82 128 41 111 50 -86 49 -95 -1 -185 -4 -202
-6z"/>
<path d="M4242 5509 c2 -7 34 -22 71 -34 79 -27 129 -52 214 -107 45 -28 70
-39 88 -36 14 3 25 1 25 -3 0 -5 7 -9 15 -9 23 0 132 -38 193 -67 40 -19 57
-22 65 -14 8 8 -13 35 -84 104 -134 131 -174 161 -222 169 -75 12 -369 9 -365
-3z"/>
<path d="M5926 5512 c-6 -10 88 -170 109 -184 5 -4 7 -8 3 -8 -4 0 13 -42 37
-92 24 -51 59 -138 78 -193 19 -55 59 -152 90 -215 59 -119 114 -280 142 -412
10 -43 21 -78 26 -78 12 0 11 276 -1 380 -17 136 -50 271 -83 330 -32 60 -97
153 -109 158 -5 2 -8 9 -8 15 0 17 -101 133 -112 129 -5 -1 -7 1 -4 6 3 5 -32
46 -78 91 -47 47 -86 79 -90 73z"/>
<path d="M6957 5407 c-238 -94 -222 -74 -162 -203 18 -41 43 -77 55 -84 55
-29 165 4 199 60 11 19 22 27 25 21 11 -18 74 -13 116 9 46 24 63 50 62 99 -1
46 -54 175 -73 178 -8 1 -107 -35 -222 -80z m203 -79 c0 -50 -68 -66 -96 -23
-20 30 -16 35 39 56 47 19 57 13 57 -33z m-174 -43 c3 -14 3 -32 0 -40 -7 -20
-63 -44 -86 -38 -16 4 -46 51 -38 59 4 4 101 42 110 43 4 1 10 -10 14 -24z"/>
<path d="M3910 5384 c-41 -7 -95 -20 -120 -28 -41 -13 -21 -15 250 -15 l295 0
-65 19 c-74 22 -194 40 -248 39 -20 0 -71 -7 -112 -15z"/>
<path d="M2976 5308 c-36 -27 -66 -54 -66 -60 0 -6 -3 -9 -6 -5 -8 7 -70 -64
-66 -76 1 -4 -2 -6 -7 -3 -11 7 -103 -113 -107 -139 -1 -9 1 -15 6 -13 11 4
126 115 223 216 42 44 77 78 77 75 0 -3 9 6 20 20 24 30 24 34 6 34 -8 0 -44
-22 -80 -49z"/>
<path d="M5006 5348 c18 -31 119 -126 127 -121 6 3 7 2 4 -4 -6 -9 69 -91 78
-85 3 1 4 0 3 -3 -5 -8 116 -125 129 -125 19 0 17 6 -24 68 -47 71 -174 199
-245 246 -53 36 -85 47 -72 24z"/>
<path d="M821 5303 c-23 -23 -88 -180 -78 -189 1 -1 102 -36 225 -78 221 -75
223 -75 231 -53 25 66 26 64 -33 86 -30 11 -67 23 -81 27 -22 5 -25 11 -20 28
30 99 13 144 -68 182 -74 34 -140 33 -176 -3z m129 -79 c41 -17 51 -41 31 -73
-8 -13 -18 -12 -70 4 -54 16 -61 21 -55 39 15 50 32 55 94 30z"/>
<path d="M2272 5227 c-50 -51 -92 -98 -92 -105 0 -6 -4 -12 -9 -12 -16 0 -132
-170 -125 -182 4 -6 3 -8 -3 -5 -38 24 -81 -188 -90 -440 -5 -154 -4 -173 10
-173 11 0 19 17 27 58 25 119 100 315 155 402 12 20 35 75 49 124 36 118 96
253 151 341 25 40 45 75 45 79 0 22 -37 -6 -118 -87z"/>
<path d="M5680 5315 c0 -16 34 -54 43 -48 5 3 7 1 3 -5 -3 -6 6 -32 22 -59 43
-75 109 -223 122 -276 7 -26 16 -47 21 -47 5 0 6 -7 3 -15 -8 -20 46 -126 59
-118 6 3 7 2 4 -4 -4 -6 5 -34 19 -62 51 -107 114 -300 114 -351 0 -11 7 -20
15 -20 34 0 12 403 -30 545 -8 28 -30 73 -50 100 -19 28 -46 66 -59 85 -36 51
-82 100 -90 95 -3 -3 -4 -2 -1 2 7 9 -166 183 -182 183 -7 0 -13 -2 -13 -5z"/>
<path d="M4915 5231 c-3 -5 -1 -12 4 -15 5 -3 11 1 15 9 6 16 -9 21 -19 6z"/>
<path d="M3234 5117 c-45 -29 -89 -59 -99 -67 -53 -43 -126 -127 -159 -183
-20 -34 -44 -73 -53 -87 -9 -14 29 20 85 74 55 55 100 104 99 110 -1 6 3 10 9
9 6 -1 55 43 110 98 54 54 96 99 94 98 -3 0 -41 -24 -86 -52z"/>
<path d="M4919 4998 c96 -97 179 -174 184 -171 6 3 7 2 4 -4 -3 -5 8 -22 26
-39 l31 -29 -33 60 c-65 116 -189 254 -214 238 -6 -3 -7 -1 -4 4 4 6 0 16 -8
23 -8 7 -15 9 -15 4 0 -5 -4 -4 -8 2 -9 15 -92 66 -92 58 0 -4 -10 1 -22 11
-13 11 55 -60 151 -157z"/>
<path d="M2499 5023 c-125 -129 -173 -188 -163 -204 4 -7 3 -9 -4 -5 -18 11
-49 -56 -61 -134 -6 -41 -12 -146 -12 -233 -2 -204 5 -216 46 -76 29 99 62
178 114 269 21 36 43 88 50 115 24 99 96 271 142 336 17 24 16 39 -1 39 -3 0
-53 -48 -111 -107z"/>
<path d="M5450 5121 c0 -6 16 -37 35 -70 53 -90 125 -273 125 -319 0 -9 11
-35 24 -57 67 -110 156 -328 156 -381 0 -7 7 -14 16 -14 15 0 16 18 11 183 -3
100 -10 209 -17 241 -12 62 -54 141 -70 131 -5 -3 -7 1 -4 9 3 9 -41 62 -127
150 -124 128 -149 149 -149 127z"/>
<path d="M7120 4926 c-145 -38 -181 -68 -182 -149 -2 -78 54 -137 131 -137 33
0 35 6 25 58 -5 24 -12 32 -32 34 -33 4 -51 32 -36 56 15 24 155 63 234 65 64
2 65 1 68 -25 2 -19 -3 -30 -18 -38 -19 -10 -21 -17 -15 -48 10 -54 19 -59 64
-29 73 48 78 154 10 211 -26 22 -40 26 -97 26 -37 -1 -105 -11 -152 -24z"/>
<path d="M2787 4882 c-32 -32 -54 -62 -50 -67 5 -4 3 -5 -3 -2 -6 4 -38 -22
-71 -56 -101 -106 -98 -93 -102 -319 -3 -207 5 -244 32 -150 21 70 68 169 115
241 23 35 42 73 42 84 0 39 43 172 76 239 19 38 34 71 35 75 2 22 -23 7 -74
-45z"/>
<path d="M5210 4934 c0 -4 8 -13 18 -21 9 -8 11 -11 4 -8 -8 5 -5 -9 8 -36 35
-67 67 -159 79 -223 7 -38 26 -82 55 -129 51 -81 87 -159 106 -229 7 -28 18
-48 26 -48 17 0 19 197 4 328 -9 77 -13 87 -52 135 -104 128 -248 262 -248
231z"/>
<path d="M657 4823 c-2 -4 -7 -25 -11 -45 -8 -42 -15 -39 124 -64 l95 -18
-122 -29 -121 -30 -7 -34 c-3 -19 -3 -38 0 -41 3 -4 108 -25 233 -47 l227 -41
6 25 c17 68 18 67 -96 86 -58 10 -102 21 -98 25 4 4 53 17 108 30 105 23 125
36 125 80 l0 26 -212 39 c-116 21 -219 40 -229 42 -9 3 -19 1 -22 -4z"/>
<path d="M3701 4695 c-30 -9 -70 -27 -89 -42 -47 -36 -411 -399 -445 -444 -35
-46 -61 -147 -52 -202 15 -93 39 -124 263 -350 151 -152 232 -226 267 -244 66
-34 154 -41 226 -18 49 16 75 38 295 259 221 220 243 246 259 295 22 69 16
160 -15 221 -12 25 -73 96 -134 158 l-111 114 44 39 c37 33 50 39 89 39 l46 0
213 -212 c225 -224 237 -241 213 -303 -6 -17 -136 -155 -297 -317 -284 -285
-286 -287 -259 -298 40 -15 114 -12 177 6 50 15 70 32 292 252 210 210 239
242 258 292 27 70 22 164 -11 230 -14 29 -101 124 -239 263 -247 249 -277 270
-389 270 -116 1 -145 -18 -397 -271 -251 -252 -269 -279 -268 -394 0 -100 30
-150 162 -282 l110 -109 -42 -39 c-90 -83 -101 -78 -354 175 l-213 213 0 49 0
49 292 293 c233 233 290 296 278 303 -8 5 -22 10 -30 10 -8 0 -31 2 -50 5 -19
2 -59 -2 -89 -10z m555 -630 c9 -49 -11 -82 -117 -188 l-100 -101 -110 110
c-108 110 -109 111 -109 159 0 48 1 49 107 157 l107 108 108 -107 c76 -76 110
-117 114 -138z"/>
<path d="M7173 4430 c-105 -15 -150 -50 -159 -127 -6 -46 18 -97 59 -127 25
-18 41 -21 133 -19 144 2 208 17 253 58 32 30 36 39 36 83 0 56 -15 88 -53
117 -22 16 -44 20 -117 22 -49 1 -118 -2 -152 -7z m218 -90 c11 -6 19 -21 19
-36 0 -36 -36 -46 -180 -48 l-125 -1 -3 27 c-4 35 18 46 110 57 106 12 157 12
179 1z"/>
<path d="M1497 4352 c-22 -107 -29 -301 -18 -445 13 -172 18 -197 37 -197 12
0 14 53 12 332 -2 233 -6 332 -14 335 -6 2 -14 -9 -17 -25z"/>
<path d="M6556 4373 c-3 -3 -6 -154 -6 -335 0 -285 2 -328 15 -328 11 0 16 12
17 40 1 22 3 52 6 68 12 79 13 330 1 435 -11 112 -18 135 -33 120z"/>
<path d="M1796 4318 c-4 -18 -9 -117 -13 -219 -6 -206 8 -359 33 -359 12 0 14
51 14 305 0 253 -2 305 -14 305 -8 0 -17 -15 -20 -32z"/>
<path d="M6250 4110 c0 -135 -3 -267 -6 -295 -5 -47 7 -87 22 -73 42 42 40
554 -2 598 -12 12 -14 -19 -14 -230z"/>
<path d="M2711 4240 c-34 -132 -34 -261 -1 -395 l25 -100 3 148 c1 81 1 213 0
295 l-3 147 -24 -95z"/>
<path d="M2091 4232 c-22 -170 -5 -459 27 -470 9 -3 12 57 12 277 0 231 -2
281 -14 281 -9 0 -17 -26 -25 -88z"/>
<path d="M5940 4040 c0 -233 2 -280 14 -280 31 0 53 246 36 405 -14 135 -18
155 -36 155 -12 0 -14 -47 -14 -280z"/>
<path d="M5342 4045 l0 -270 21 60 c29 87 29 321 -1 415 l-20 65 0 -270z"/>
<path d="M576 4244 c-3 -26 -5 -48 -4 -49 3 -3 433 -35 461 -35 14 0 17 9 17
44 l0 45 -52 5 c-29 3 -120 10 -203 16 -82 6 -164 13 -181 15 -31 5 -31 4 -38
-41z"/>
<path d="M2406 4273 c-26 -87 -32 -242 -15 -374 12 -90 21 -111 41 -91 7 7 8
12 3 12 -6 0 -9 91 -7 235 2 147 -1 235 -7 235 -5 0 -12 -8 -15 -17z"/>
<path d="M5640 4045 c0 -202 2 -245 14 -245 19 0 26 36 33 189 7 152 -9 301
-33 301 -12 0 -14 -42 -14 -245z"/>
<path d="M719 3920 c-94 -16 -140 -59 -141 -131 -1 -55 19 -95 57 -119 57 -35
297 -23 367 18 68 40 78 147 19 206 -31 31 -32 31 -144 33 -61 1 -133 -2 -158
-7z m245 -96 c19 -19 20 -25 4 -47 -22 -29 -246 -49 -289 -27 -22 12 -25 43
-5 59 17 14 114 28 208 30 48 1 71 -3 82 -15z"/>
<path d="M7025 3896 c-4 -20 -5 -42 -2 -49 4 -10 54 -17 188 -26 101 -6 208
-15 237 -18 l52 -6 0 46 c0 56 14 52 -210 67 -91 6 -186 13 -212 16 l-47 6 -6
-36z"/>
<path d="M2561 3673 c0 -205 5 -230 49 -285 74 -90 233 -246 246 -241 8 3 11
9 8 14 -3 5 -10 7 -15 4 -5 -3 -6 1 -3 9 3 8 -2 25 -10 39 -24 36 -73 176 -81
231 -5 33 -26 79 -60 135 -43 72 -84 163 -109 244 -3 9 -10 17 -16 17 -6 0
-10 -59 -9 -167z"/>
<path d="M5475 3783 c-20 -69 -86 -205 -118 -243 -14 -17 -29 -54 -36 -91 -17
-84 -54 -191 -87 -246 -52 -90 -9 -65 122 69 95 97 133 144 142 173 7 22 16
119 19 218 5 157 4 177 -10 177 -10 0 -21 -19 -32 -57z m-242 -618 c-3 -9 -8
-14 -10 -11 -3 3 -2 9 2 15 9 16 15 13 8 -4z"/>
<path d="M2260 3800 c8 -5 11 -10 5 -10 -13 0 -9 -281 6 -380 11 -79 27 -113
92 -195 63 -82 198 -216 209 -209 7 4 8 2 4 -4 -11 -18 26 -53 44 -42 12 7 12
11 -3 27 -32 36 -107 202 -133 294 -29 108 -53 160 -68 152 -6 -4 -8 -3 -4 1
3 4 -11 42 -32 85 -21 42 -53 125 -71 184 -24 76 -37 107 -49 107 -13 0 -13
-1 0 -10z"/>
<path d="M5780 3753 c-18 -83 -62 -193 -114 -284 -25 -45 -56 -119 -72 -176
-25 -92 -78 -214 -126 -291 -13 -21 -17 -37 -11 -43 12 -12 237 221 292 303
50 74 61 134 68 366 5 156 4 182 -9 182 -10 0 -19 -19 -28 -57z"/>
<path d="M1954 3608 c5 -153 19 -277 41 -373 16 -65 117 -205 247 -340 51 -53
95 -101 96 -106 2 -5 10 -9 18 -9 9 0 12 -4 9 -10 -3 -5 -2 -10 4 -10 23 0 20
22 -7 62 -49 72 -118 218 -152 323 -18 55 -61 159 -96 230 -55 113 -134 343
-134 391 0 8 -7 14 -16 14 -14 0 -15 -19 -10 -172z"/>
<path d="M6090 3758 c-1 -67 -84 -305 -146 -416 -20 -35 -49 -107 -66 -160
-35 -111 -96 -246 -156 -344 -24 -41 -36 -70 -30 -74 5 -3 49 34 96 83 191
197 274 315 296 417 27 126 37 228 35 374 -1 115 -4 142 -15 142 -8 0 -14 -10
-14 -22z"/>
<path d="M1650 3628 c0 -146 13 -274 40 -412 21 -104 67 -213 89 -208 7 1 9
-2 6 -9 -7 -10 50 -100 67 -107 4 -2 8 -8 8 -14 0 -16 112 -147 203 -237 61
-59 87 -79 93 -70 4 7 3 14 -4 17 -7 2 -12 8 -12 13 0 4 -21 41 -46 80 -62 95
-135 252 -173 371 -17 54 -48 130 -69 170 -56 105 -128 302 -154 423 -32 147
-48 141 -48 -17z"/>
<path d="M6396 3728 c-40 -198 -90 -344 -168 -496 -21 -41 -35 -79 -32 -85 4
-7 4 -9 -1 -5 -10 10 -86 -212 -78 -225 3 -6 1 -7 -4 -4 -6 4 -20 -16 -32 -45
-12 -29 -39 -83 -61 -121 -22 -38 -37 -74 -33 -80 3 -7 3 -9 -2 -5 -16 15 -73
-78 -57 -94 11 -11 168 155 269 284 143 182 175 259 208 491 17 121 21 407 5
407 -5 0 -12 -10 -14 -22z"/>
<path d="M6661 3528 c-33 -127 -94 -294 -151 -408 -26 -52 -57 -126 -70 -165
-40 -123 -97 -254 -152 -348 -16 -27 -25 -54 -22 -60 4 -7 4 -9 -1 -5 -12 11
-47 -51 -40 -70 5 -13 8 -12 21 6 8 12 12 27 8 34 -4 7 -3 8 4 4 12 -7 57 58
130 189 50 89 123 235 126 250 1 6 5 16 9 23 5 6 5 17 1 24 -4 6 -3 8 3 5 11
-7 92 210 123 332 31 123 59 265 54 273 -12 19 -21 2 -43 -84z"/>
<path d="M1375 3568 c25 -161 94 -398 162 -557 68 -161 153 -322 165 -315 7 4
8 2 4 -4 -7 -12 0 -26 82 -150 74 -110 93 -95 24 20 -64 106 -113 213 -167
363 -24 66 -66 167 -94 225 -53 110 -135 345 -147 418 -4 27 -12 42 -21 42
-12 0 -13 -9 -8 -42z"/>
<path d="M6996 3598 c-3 -7 -7 -27 -10 -45 -6 -35 -10 -34 117 -54 43 -6 80
-15 82 -19 3 -4 -47 -19 -109 -34 l-114 -27 -7 -36 c-3 -19 -4 -37 -2 -39 8
-8 458 -87 463 -81 3 3 8 23 11 45 6 45 17 39 -117 63 -36 6 -71 15 -78 19 -8
4 36 17 97 30 61 13 115 28 120 34 5 6 10 25 13 43 4 28 1 33 -21 37 -41 9
-427 76 -435 76 -4 0 -8 -6 -10 -12z"/>
<path d="M975 3440 c-3 -5 -1 -27 5 -49 9 -33 15 -40 38 -43 21 -2 28 -9 30
-29 3 -23 -3 -29 -40 -44 -57 -23 -206 -53 -234 -47 -34 6 -42 42 -14 64 19
16 21 24 16 62 -6 38 -10 43 -27 39 -11 -3 -36 -20 -55 -38 -30 -28 -34 -38
-34 -82 0 -66 31 -113 87 -132 36 -13 51 -13 124 2 234 46 300 104 254 223
-14 37 -25 50 -59 65 -45 21 -82 24 -91 9z"/>
<path d="M2916 3318 c3 -10 11 -18 17 -18 6 0 8 -3 4 -6 -9 -9 51 -103 111
-172 55 -63 131 -123 232 -182 54 -31 53 -30 -60 84 -63 64 -115 116 -117 116
-1 0 0 -8 3 -17 5 -15 4 -15 -4 -3 -6 8 -9 17 -7 20 2 4 -39 49 -91 101 -52
52 -92 86 -88 77z"/>
<path d="M5117 3282 c-21 -21 -34 -42 -30 -47 5 -4 3 -5 -3 -2 -6 3 -82 -66
-170 -154 -141 -142 -153 -157 -109 -132 79 43 146 94 138 105 -3 7 -1 8 6 4
14 -9 85 59 76 74 -4 6 -2 9 3 8 15 -4 84 90 76 104 -5 7 -3 8 6 3 10 -6 12
-4 7 8 -3 10 -3 17 2 17 5 0 16 11 25 25 23 34 16 31 -27 -13z"/>
<path d="M6871 3089 c-6 -18 -11 -37 -11 -44 0 -6 34 -22 76 -35 l76 -24 -8
-41 c-17 -92 -3 -125 64 -159 101 -50 174 -40 210 31 23 44 58 151 51 156 -7
6 -427 147 -438 147 -5 0 -14 -14 -20 -31z m291 -156 c33 -10 58 -23 58 -31 0
-29 -21 -52 -48 -52 -38 0 -95 37 -88 56 3 9 6 22 6 30 0 18 2 18 72 -3z"/>
<path d="M2715 3070 c-3 -5 -1 -10 5 -10 6 0 9 -4 6 -8 -6 -9 71 -110 133
-175 61 -65 193 -159 204 -148 13 13 -101 133 -116 124 -6 -3 -7 -2 -4 4 6 9
-58 79 -78 85 -5 2 -9 6 -8 9 1 4 -21 28 -50 55 -74 70 -84 77 -92 64z"/>
<path d="M5180 2920 c-85 -88 -154 -164 -153 -169 2 -6 -4 -8 -12 -5 -17 7
-21 -11 -5 -21 9 -6 43 14 94 55 76 61 251 250 231 250 -4 0 1 7 9 16 15 15
14 35 -2 33 -4 -1 -77 -72 -162 -159z"/>
<path d="M1085 2956 c-31 -14 -55 -33 -62 -49 -11 -23 -14 -25 -41 -15 -24 9
-39 8 -76 -6 -56 -21 -86 -57 -86 -103 0 -45 58 -196 73 -190 7 3 105 42 220
87 114 45 207 85 207 88 1 24 -60 160 -82 183 -33 37 -83 38 -153 5z m111
-102 c10 -14 13 -28 8 -33 -13 -12 -104 -45 -109 -39 -3 2 -8 18 -11 35 -5 27
-2 33 22 47 43 23 71 20 90 -10z m-192 -66 c24 -33 20 -41 -27 -60 -55 -23
-54 -23 -62 14 -6 26 -3 35 15 50 30 24 56 23 74 -4z"/>
<path d="M2485 2880 c-11 -18 100 -164 118 -153 6 3 7 1 4 -4 -7 -10 142 -168
150 -160 2 2 20 -11 40 -29 20 -19 43 -34 50 -34 7 0 13 -5 13 -12 0 -9 3 -9
12 0 9 9 -13 36 -92 116 -57 58 -108 102 -113 99 -6 -3 -7 -2 -4 4 3 5 -34 49
-83 97 -51 50 -91 82 -95 76z"/>
<path d="M5395 2708 c-195 -197 -210 -214 -196 -222 18 -11 215 149 205 166
-3 5 0 7 8 6 7 -2 12 3 10 10 -1 8 1 11 6 8 12 -7 132 127 160 180 10 20 7 35
-7 33 -3 0 -87 -82 -186 -181z"/>
<path d="M3143 2856 c0 -14 152 -167 237 -238 24 -21 60 -41 80 -45 60 -12
373 -9 377 3 2 6 -18 17 -44 24 -67 18 -159 60 -229 105 -39 25 -90 46 -150
61 -103 26 -175 53 -225 83 -40 25 -46 26 -46 7z"/>
<path d="M4896 2854 c-9 -8 -16 -12 -16 -9 0 4 -15 -2 -32 -13 -42 -25 -147
-61 -217 -74 -34 -6 -75 -24 -110 -47 -61 -42 -172 -93 -238 -110 -28 -8 -43
-17 -43 -28 0 -14 19 -15 183 -10 131 3 192 9 217 20 48 21 122 86 113 100 -3
7 -3 9 2 5 10 -9 186 162 179 174 -8 12 -21 10 -38 -8z"/>
<path d="M6715 2710 l-19 -41 28 -22 28 -23 -23 -48 c-24 -47 -24 -48 -64 -42
-39 6 -40 5 -59 -35 -10 -22 -17 -41 -15 -43 6 -5 472 -107 474 -104 1 2 11
20 23 40 l21 37 -175 156 c-96 86 -181 158 -188 161 -7 3 -20 -12 -31 -36z
m175 -197 c32 -26 57 -49 56 -51 -5 -4 -129 28 -145 37 -9 6 -9 13 0 34 7 15
16 27 21 27 5 0 35 -21 68 -47z"/>
<path d="M3825 2719 c138 -38 313 -35 445 6 41 12 20 14 -235 13 l-280 0 70
-19z"/>
<path d="M5596 2481 c-135 -135 -214 -221 -207 -225 47 -29 472 397 435 434
-6 6 -96 -76 -228 -209z"/>
<path d="M2247 2684 c-8 -9 34 -64 44 -58 5 3 6 -2 3 -10 -3 -9 4 -21 20 -31
14 -10 24 -21 21 -25 -6 -10 204 -220 220 -220 8 0 18 -6 22 -14 14 -25 89
-74 102 -67 8 6 2 17 -21 37 -18 16 -44 43 -56 59 -13 17 -27 30 -30 30 -3 0
-74 69 -156 153 -82 83 -153 152 -156 152 -4 0 -9 -3 -13 -6z"/>
<path d="M2950 2621 c0 -11 197 -206 255 -252 84 -66 113 -79 213 -94 128 -19
382 -20 382 -2 0 8 -21 18 -51 25 -78 18 -248 88 -307 126 -30 19 -77 40 -105
47 -29 7 -67 18 -86 26 -18 8 -40 12 -48 9 -8 -3 -12 -2 -9 3 3 4 -11 13 -32
19 -20 6 -73 32 -116 57 -82 46 -96 52 -96 36z"/>
<path d="M5085 2614 c-11 -8 -46 -27 -77 -41 -33 -14 -55 -30 -51 -36 3 -5 1
-7 -4 -4 -6 4 -40 -4 -75 -17 -36 -14 -94 -32 -129 -41 -35 -9 -71 -22 -79
-29 -51 -43 -272 -135 -362 -151 -24 -5 -38 -13 -38 -22 0 -14 23 -15 183 -10
239 7 295 18 372 73 77 54 286 254 279 266 -3 4 -2 7 3 6 4 -2 9 1 11 7 6 16
-12 15 -33 -1z"/>
<path d="M1392 2558 c-18 -11 -32 -24 -32 -30 0 -5 14 -29 30 -53 l30 -44 -44
-30 c-25 -17 -47 -31 -49 -31 -3 0 -18 20 -33 44 l-27 43 -34 -19 c-18 -11
-33 -23 -33 -26 0 -3 11 -25 25 -48 l25 -43 -37 -26 c-21 -14 -42 -25 -48 -25
-5 0 -23 20 -38 45 -16 25 -33 45 -38 45 -15 0 -59 -31 -59 -41 0 -20 106
-178 117 -174 11 4 370 232 386 245 4 3 -19 47 -51 97 l-59 91 -31 -20z"/>
<path d="M2020 2485 c0 -45 214 -278 380 -412 56 -46 90 -64 90 -49 0 9 -51
64 -155 167 -60 60 -114 114 -120 119 -46 47 -173 173 -182 182 -10 8 -13 6
-13 -7z"/>
<path d="M5809 2264 c-193 -194 -231 -236 -220 -246 12 -11 13 -10 8 4 -4 12
-2 15 9 11 16 -6 47 15 39 27 -3 4 1 7 9 6 20 -2 177 135 169 148 -3 6 -3 8 1
5 8 -7 76 50 76 63 0 5 -5 6 -12 2 -7 -4 -8 -3 -4 5 4 6 11 9 15 6 12 -7 43
30 34 40 -5 4 -3 5 3 2 6 -4 35 23 64 61 75 93 72 89 57 95 -9 3 -103 -84
-248 -229z"/>
<path d="M3790 2426 c0 -24 149 -40 301 -33 153 7 189 14 189 33 0 12 -43 14
-245 14 -203 0 -245 -2 -245 -14z"/>
<path d="M2760 2382 c0 -9 17 -32 38 -51 20 -19 71 -66 112 -104 97 -90 229
-189 243 -180 5 3 7 2 4 -4 -9 -14 34 -32 133 -54 61 -14 141 -22 283 -26 179
-5 197 -4 197 11 0 9 -8 16 -20 16 -65 0 -255 66 -399 138 -64 32 -145 67
-181 77 -73 20 -241 93 -301 131 -22 13 -45 22 -51 18 -6 -4 -8 -3 -5 3 4 6
-4 18 -18 27 -31 20 -35 20 -35 -2z"/>
<path d="M5230 2351 c-87 -55 -233 -120 -340 -152 -41 -12 -106 -39 -145 -60
-99 -53 -213 -98 -335 -130 -57 -15 -106 -32 -108 -38 -5 -14 241 -15 358 -1
127 15 231 40 224 52 -5 7 -2 8 5 4 7 -5 20 -1 29 7 9 8 42 33 73 54 74 50
132 99 242 205 108 105 107 128 -3 59z"/>
<path d="M6422 2240 c-12 -16 -22 -33 -22 -39 0 -5 29 -32 65 -60 50 -39 83
-79 146 -174 45 -67 85 -126 89 -130 4 -5 21 10 39 31 l31 40 -47 59 c-25 32
-51 64 -56 71 -6 7 23 -3 64 -23 40 -19 79 -35 85 -35 12 0 69 69 62 75 -2 3
-62 25 -132 50 -151 53 -153 54 -232 116 -34 27 -64 49 -66 49 -2 0 -14 -13
-26 -30z"/>
<path d="M1515 2051 c-104 -58 -199 -111 -209 -118 -19 -10 -19 -12 10 -46 16
-20 32 -36 36 -36 4 -1 66 37 138 84 72 47 133 85 136 85 3 0 -119 -154 -192
-240 -10 -12 -7 -22 21 -54 l33 -40 124 74 c67 40 134 80 148 89 23 13 22 12
-6 -20 -17 -19 -67 -76 -113 -127 l-82 -92 32 -40 c18 -22 33 -40 35 -40 1 0
64 82 140 183 75 100 141 187 146 194 6 8 -2 24 -24 47 l-33 36 -142 -84 c-79
-47 -143 -82 -143 -80 0 3 45 61 100 129 55 67 100 127 100 131 -1 9 -57 75
-62 73 -2 0 -88 -49 -193 -108z"/>
<path d="M2563 2148 c2 -7 11 -11 18 -10 8 2 10 0 6 -4 -10 -10 134 -155 146
-147 6 3 7 2 4 -4 -6 -9 111 -113 127 -113 4 0 14 -7 23 -15 22 -23 122 -89
168 -112 47 -23 132 -46 145 -38 4 3 10 1 12 -4 6 -17 227 -41 377 -41 145 0
203 12 124 25 -21 4 -71 16 -111 26 -39 11 -78 17 -85 13 -6 -4 -9 -4 -5 1 4
4 -24 19 -62 31 -39 13 -114 44 -166 69 -53 25 -101 42 -107 38 -5 -3 -7 -2
-4 4 8 12 -21 27 -88 46 -27 8 -81 27 -119 41 -37 14 -73 23 -80 19 -6 -3 -8
-2 -3 2 4 5 -32 28 -79 52 -48 24 -118 64 -156 88 -70 46 -93 55 -85 33z"/>
<path d="M5435 2121 c-33 -21 -100 -59 -150 -85 -49 -25 -95 -50 -100 -54 -6
-4 -15 -8 -20 -9 -27 -6 -233 -77 -250 -86 -196 -104 -338 -155 -562 -203 -13
-2 -23 -9 -23 -14 0 -6 59 -10 153 -10 225 0 440 35 542 87 56 29 182 114 218
146 12 12 39 34 58 48 60 46 220 205 213 212 -11 11 -15 9 -79 -32z"/>
<path d="M3760 2126 c0 -13 29 -23 70 -25 8 -1 53 -6 100 -12 136 -16 387 7
387 37 0 12 -44 14 -279 14 -233 0 -278 -2 -278 -14z"/>
<path d="M6128 1897 l-37 -32 65 -110 c36 -60 75 -125 87 -144 27 -44 19 -40
-125 77 l-118 94 -35 -26 c-19 -15 -35 -32 -35 -38 0 -13 223 -417 230 -418 3
0 22 14 43 31 l37 30 -91 135 c-50 75 -89 137 -87 139 2 2 59 -44 128 -100
l125 -104 29 23 c54 41 53 43 -22 168 -39 63 -76 126 -82 139 l-13 24 24 -21
c13 -11 68 -60 122 -107 l99 -87 27 20 c57 40 57 42 -27 107 -150 115 -287
219 -297 225 -6 4 -27 -8 -47 -25z"/>
<path d="M5568 1845 c-21 -12 -41 -25 -45 -30 -5 -4 -2 -5 6 0 10 5 12 4 7 -4
-4 -6 -11 -9 -16 -6 -9 6 -202 -89 -195 -96 2 -3 -4 -5 -13 -6 -28 -1 -282
-98 -362 -138 -128 -64 -421 -165 -479 -165 -13 0 -13 -2 -2 -9 11 -7 11 -9 0
-14 -31 -14 74 6 211 40 196 47 363 109 555 203 179 88 388 219 377 236 -5 7
-20 3 -44 -11z"/>
<path d="M2455 1850 c-3 -5 -1 -10 5 -10 7 0 29 -13 49 -28 68 -53 242 -153
254 -146 7 4 9 3 4 -1 -15 -17 238 -131 435 -195 114 -37 308 -85 372 -92 16
-2 31 2 33 8 5 14 -123 48 -140 38 -7 -4 -9 -4 -5 1 4 4 -45 25 -110 47 -64
21 -162 61 -217 88 -55 27 -147 65 -205 85 -123 43 -265 108 -371 170 -79 47
-94 52 -104 35z"/>
<path d="M3730 1820 c0 -32 302 -50 485 -30 102 12 125 17 125 31 0 5 -123 9
-305 9 -193 0 -305 -4 -305 -10z"/>
<path d="M2133 1608 c-47 -57 -87 -91 -181 -153 -67 -44 -122 -82 -122 -85 0
-3 16 -18 36 -33 l35 -29 37 26 c20 15 52 39 70 53 l33 26 -10 -26 c-6 -14
-21 -48 -36 -76 -14 -28 -25 -52 -25 -54 0 -7 80 -60 83 -56 2 2 25 65 52 139
39 110 59 149 106 212 l58 78 -33 25 c-18 14 -35 25 -38 25 -3 0 -32 -33 -65
-72z"/>
<path d="M5598 1491 c-49 -31 -88 -60 -88 -64 0 -5 9 -22 20 -38 l21 -28 48
29 c27 17 51 30 54 30 8 0 57 -76 57 -88 0 -5 -18 -18 -40 -31 -22 -12 -40
-25 -40 -28 0 -3 9 -21 21 -39 l21 -34 44 31 c25 17 46 29 48 27 1 -1 14 -23
30 -46 15 -24 26 -45 24 -47 -2 -1 -23 -15 -48 -30 -25 -15 -47 -29 -49 -31
-2 -2 7 -19 19 -39 21 -33 24 -35 44 -22 11 8 51 33 89 56 37 24 67 46 67 50
0 8 -236 381 -248 392 -4 4 -46 -19 -94 -50z"/>
<path d="M3700 1516 c0 -31 401 -46 570 -22 25 4 58 6 73 6 19 0 27 4 25 12
-7 20 -668 24 -668 4z"/>
<path d="M2445 1458 c-4 -18 -27 -122 -51 -231 -24 -108 -44 -202 -44 -207 0
-5 18 -19 39 -30 l40 -20 148 168 c81 92 154 175 161 184 12 15 9 19 -29 38
l-42 22 -22 -28 -23 -28 -51 24 c-40 18 -50 28 -46 42 3 10 7 27 11 38 4 15
-4 24 -35 40 -22 11 -42 20 -45 20 -2 0 -7 -15 -11 -32z m115 -204 c0 -5 -102
-134 -106 -134 -3 0 37 153 42 162 5 8 64 -18 64 -28z"/>
<path d="M5239 1302 c-129 -53 -151 -84 -125 -175 14 -48 56 -107 76 -107 5 0
6 -17 3 -39 -11 -82 36 -153 104 -154 36 -1 179 48 189 64 6 11 -160 432 -172
435 -5 2 -39 -9 -75 -24z m48 -141 c23 -65 20 -71 -33 -71 -19 0 -29 8 -40 36
-8 19 -12 43 -9 53 4 15 36 38 55 40 3 1 15 -26 27 -58z m69 -177 c19 -50 12
-64 -33 -64 -43 0 -58 68 -21 94 32 23 34 21 54 -30z"/>
<path d="M3005 1139 c-22 -66 -30 -79 -44 -73 -9 3 -40 9 -68 12 -49 4 -55 2
-83 -28 -31 -33 -60 -112 -60 -163 0 -46 52 -89 142 -119 69 -24 77 -25 83
-10 14 35 145 426 145 432 0 6 -67 30 -83 30 -3 0 -17 -36 -32 -81z m-68 -157
c10 -6 8 -22 -8 -69 l-20 -61 -31 10 c-29 10 -30 13 -25 54 2 24 10 51 17 59
13 16 47 20 67 7z"/>
<path d="M4698 1124 c-36 -19 -58 -63 -58 -112 l0 -39 45 10 c37 8 45 14 45
32 0 27 23 48 47 43 22 -4 46 -68 69 -178 19 -96 14 -130 -21 -130 -13 0 -30
9 -38 20 -11 15 -21 18 -50 13 -21 -3 -40 -9 -43 -14 -9 -15 27 -70 59 -89 59
-36 140 -17 177 42 19 28 21 43 16 108 -6 81 -38 208 -63 251 -33 56 -124 77
-185 43z"/>
<path d="M3336 1113 c-15 -55 -79 -443 -73 -449 3 -4 24 -10 46 -14 l39 -7 18
108 c10 60 21 105 25 101 3 -4 16 -56 29 -115 13 -60 28 -110 34 -112 6 -2 25
-6 42 -9 l31 -5 41 231 c23 128 40 233 39 234 -1 2 -22 7 -45 12 -48 11 -41
23 -67 -117 -8 -47 -17 -86 -19 -88 -2 -2 -16 48 -31 112 -15 64 -32 118 -38
120 -50 15 -66 14 -71 -2z"/>
<path d="M4234 1056 c-40 -18 -72 -59 -80 -105 -10 -48 11 -249 30 -295 41
-99 188 -101 236 -2 22 47 24 91 10 220 -12 99 -30 147 -65 170 -35 23 -95 28
-131 12z m88 -103 c6 -16 11 -84 12 -153 l1 -125 -27 -3 c-19 -2 -30 3 -39 20
-13 24 -26 246 -16 272 11 27 56 20 69 -11z"/>
<path d="M3817 833 c-10 -125 -17 -234 -17 -240 0 -14 90 -19 91 -5 0 4 8 108
18 232 10 124 18 226 17 227 0 0 -22 4 -47 8 l-45 7 -17 -229z"/>
</g>
</svg>
